# xmcd
#
# Track frame offsets: 
#        150
#        16221
#        29802
#        48979
#        72849
#        92615
#        122598
#        142349
#        163023
#
# Disc length: 2619 seconds
#
# Revision: 0
# Processed by: cddbd v1.5.2PL0 Copyright (c) Steve Scherf et al.
# Submitted via: ExactAudioCopy v1.0b3
#
DISCID=7b0a3909
DTITLE=BOBBY KING and TERRY EVANS - LIVE and LET LIVE!
DYEAR=1900
DGENRE=R&B
TTITLE0=JUST A LITTLE BIT
TTITLE1=BALD HEAD
TTITLE2=SEEING IS BELIEVING
TTITLE3=LET LOVE BEGIN
TTITLE4=SATURDAY NIGHT
TTITLE5=LET ME GO BACK TO THE COUNTRY
TTITLE6=GOT TO KEEP MOVING
TTITLE7=LIVE and LET LIVE
TTITLE8=AT THE DARK END OF THE STREET
EXTD=
EXTT0=
EXTT1=
EXTT2=
EXTT3=
EXTT4=
EXTT5=
EXTT6=
EXTT7=
EXTT8=
PLAYORDER=
